<svg xmlns="http://www.w3.org/2000/svg" xmlns:xlink="http://www.w3.org/1999/xlink" viewBox="0 0 33 33"><defs><clipPath id="a" transform="translate(-989 -540.4)"><path d="M1022,556.9q0,4.92-.11,6.81a9.14,9.14,0,0,1-9.58,9.58q-1.89.11-6.81.11t-6.81-.11a9.14,9.14,0,0,1-9.58-9.58q-.11-1.89-.11-6.81t.11-6.81a9.14,9.14,0,0,1,9.58-9.58q1.89-.11,6.81-.11t6.81.11a9.14,9.14,0,0,1,9.58,9.58Q1022,552,1022,556.9Z" fill="none"/></clipPath></defs><title>code-squircle</title><g clip-path="url(#a)"><path d="M1020.19,542.22a6,6,0,0,0-4.37-1.82H995.19a6.2,6.2,0,0,0-6.19,6.19v20.63a6.2,6.2,0,0,0,6.19,6.19h20.63a6.2,6.2,0,0,0,6.19-6.19V546.59A6,6,0,0,0,1020.19,542.22Zm-19,19.51a.39.39,0,0,1,0,.56l-.61.61a.39.39,0,0,1-.56,0l-5.72-5.72a.39.39,0,0,1,0-.56l5.72-5.72a.39.39,0,0,1,.56,0l.61.61a.39.39,0,0,1,0,.56l-4.82,4.82Zm7.25-12.53L1003.83,565a.4.4,0,0,1-.19.24.34.34,0,0,1-.29,0l-.76-.21a.4.4,0,0,1-.24-.19.37.37,0,0,1,0-.3l4.58-15.84a.4.4,0,0,1,.19-.24.34.34,0,0,1,.29,0l.76.21a.4.4,0,0,1,.24.19A.37.37,0,0,1,1008.41,549.2Zm8.06,8-5.72,5.72a.39.39,0,0,1-.56,0l-.61-.61a.39.39,0,0,1,0-.56l4.82-4.82-4.82-4.82a.39.39,0,0,1,0-.56l.61-.61a.39.39,0,0,1,.56,0l5.72,5.72a.39.39,0,0,1,0,.56Z" transform="translate(-989 -540.4)"/></g></svg>