<svg xmlns="http://www.w3.org/2000/svg" xmlns:xlink="http://www.w3.org/1999/xlink" viewBox="0 0 33 33"><defs><clipPath id="a" transform="translate(-989 -540.4)"><path d="M1022,556.9q0,4.92-.11,6.81a9.14,9.14,0,0,1-9.58,9.58q-1.89.11-6.81.11t-6.81-.11a9.14,9.14,0,0,1-9.58-9.58q-.11-1.89-.11-6.81t.11-6.81a9.14,9.14,0,0,1,9.58-9.58q1.89-.11,6.81-.11t6.81.11a9.14,9.14,0,0,1,9.58,9.58Q1022,552,1022,556.9Z" fill="none"/></clipPath></defs><title>facebook-squircle</title><g clip-path="url(#a)"><path d="M1015.81,540.4a6.2,6.2,0,0,1,6.19,6.19v20.63a6.2,6.2,0,0,1-6.19,6.19h-4V560.62h4.28l.64-5h-4.92v-3.18a2.75,2.75,0,0,1,.5-1.8,2.51,2.51,0,0,1,2-.6l2.62,0v-4.45a28.8,28.8,0,0,0-3.82-.19,6.38,6.38,0,0,0-4.67,1.72,6.5,6.5,0,0,0-1.75,4.86v3.67h-4.3v5h4.3V573.4H995.19a6.2,6.2,0,0,1-6.19-6.19V546.59a6.2,6.2,0,0,1,6.19-6.19Z" transform="translate(-989 -540.4)"/></g></svg>