<svg xmlns="http://www.w3.org/2000/svg" viewBox="0 0 33 33"><title>instagram</title><path d="M1011,556.91a5.5,5.5,0,1,0-1.61,3.89A5.3,5.3,0,0,0,1011,556.91Zm3,0a8.44,8.44,0,1,1-2.47-6A8.16,8.16,0,0,1,1014,556.91Zm2.32-8.81a2,2,0,1,1-.58-1.4A1.9,1.9,0,0,1,1016.29,548.1Zm-10.79-4.73h-3.91l-2.07.06a17,17,0,0,0-2.21.21,8.61,8.61,0,0,0-1.54.4,5.63,5.63,0,0,0-3.14,3.14,8.61,8.61,0,0,0-.4,1.54,17,17,0,0,0-.21,2.21q-.05,1.3-.06,2.07t0,2.27q0,1.49,0,1.64t0,1.64q0,1.49,0,2.27t.06,2.07a17,17,0,0,0,.21,2.21,8.61,8.61,0,0,0,.4,1.54,5.63,5.63,0,0,0,3.14,3.14,8.61,8.61,0,0,0,1.54.4,17,17,0,0,0,2.21.21l2.07.06h7.82l2.07-.06a17,17,0,0,0,2.21-.21,8.61,8.61,0,0,0,1.54-.4,5.63,5.63,0,0,0,3.14-3.14,8.61,8.61,0,0,0,.4-1.54,17,17,0,0,0,.21-2.21q.05-1.3.06-2.07t0-2.27q0-1.49,0-1.64t0-1.64q0-1.49,0-2.27t-.06-2.07a17,17,0,0,0-.21-2.21,8.61,8.61,0,0,0-.4-1.54,5.63,5.63,0,0,0-3.14-3.14,8.61,8.61,0,0,0-1.54-.4,17,17,0,0,0-2.21-.21l-2.07-.06h-3.91Zm16.5,13.54q0,4.92-.11,6.81a9.14,9.14,0,0,1-9.58,9.58q-1.89.11-6.81.11t-6.81-.11a9.14,9.14,0,0,1-9.58-9.58q-.11-1.89-.11-6.81t.11-6.81a9.14,9.14,0,0,1,9.58-9.58q1.89-.11,6.81-.11t6.81.11a9.14,9.14,0,0,1,9.58,9.58Q1022,552,1022,556.91Z" transform="translate(-989 -540.41)"/></svg>