<svg xmlns="http://www.w3.org/2000/svg" viewBox="0 0 33 33"><title>skype</title><path d="M1014.2,560.49a4.56,4.56,0,0,0-.42-2,4.73,4.73,0,0,0-1-1.47,6.65,6.65,0,0,0-1.57-1.05,12,12,0,0,0-1.77-.73q-.83-.26-1.88-.49l-2.23-.52-.95-.23a6.9,6.9,0,0,1-.75-.25,2.16,2.16,0,0,1-.64-.34,1.8,1.8,0,0,1-.35-.45,1.27,1.27,0,0,1-.16-.64q0-1.65,3.09-1.65a5,5,0,0,1,1.65.26,3.81,3.81,0,0,1,1.16.61q.43.35.82.72a4.12,4.12,0,0,0,.86.62,2.12,2.12,0,0,0,1,.26,2.07,2.07,0,0,0,1.62-.69,2.4,2.4,0,0,0,.61-1.65,2.73,2.73,0,0,0-1.2-2.14,8.28,8.28,0,0,0-3.05-1.45,15.08,15.08,0,0,0-3.91-.49,12,12,0,0,0-2.84.33,9.89,9.89,0,0,0-2.57,1,5.16,5.16,0,0,0-2.63,4.63,5.91,5.91,0,0,0,.41,2.29,4.07,4.07,0,0,0,1.2,1.62,7.3,7.3,0,0,0,1.72,1,13.28,13.28,0,0,0,2.21.7l3.14.77a10.39,10.39,0,0,1,2.41.77,1.42,1.42,0,0,1,.69,1.29,1.61,1.61,0,0,1-.86,1.39,4.14,4.14,0,0,1-2.26.55,5.31,5.31,0,0,1-2-.34,4.48,4.48,0,0,1-1.4-.83q-.53-.48-1-1a5.14,5.14,0,0,0-1-.83,2.11,2.11,0,0,0-1.16-.34,2,2,0,0,0-1.62.64,2.4,2.4,0,0,0-.55,1.61q0,2,2.62,3.38a13,13,0,0,0,6.25,1.41,11.25,11.25,0,0,0,3-.4,9.78,9.78,0,0,0,2.63-1.15,5.57,5.57,0,0,0,1.9-2A5.65,5.65,0,0,0,1014.2,560.49Zm7.8,4.66a8.25,8.25,0,0,1-8.25,8.25,8,8,0,0,1-5-1.72,15.82,15.82,0,0,1-3.22.34,14.86,14.86,0,0,1-5.88-1.19,14.81,14.81,0,0,1-8.06-8.06,14.86,14.86,0,0,1-1.19-5.88,15.82,15.82,0,0,1,.34-3.22,8,8,0,0,1-1.72-5,8.25,8.25,0,0,1,8.25-8.25,8,8,0,0,1,5,1.72,15.82,15.82,0,0,1,3.22-.34,14.86,14.86,0,0,1,5.88,1.19,14.81,14.81,0,0,1,8.06,8.06,14.86,14.86,0,0,1,1.19,5.88,15.82,15.82,0,0,1-.34,3.22A8,8,0,0,1,1022,565.16Z" transform="translate(-989 -540.4)"/></svg>