<svg xmlns="http://www.w3.org/2000/svg" xmlns:xlink="http://www.w3.org/1999/xlink" viewBox="0 0 33 33"><defs><clipPath id="a" transform="translate(-989 -540.4)"><path d="M1022,556.9q0,4.92-.11,6.81a9.14,9.14,0,0,1-9.58,9.58q-1.89.11-6.81.11t-6.81-.11a9.14,9.14,0,0,1-9.58-9.58q-.11-1.89-.11-6.81t.11-6.81a9.14,9.14,0,0,1,9.58-9.58q1.89-.11,6.81-.11t6.81.11a9.14,9.14,0,0,1,9.58,9.58Q1022,552,1022,556.9Z" fill="none"/></clipPath></defs><title>linkedin-squircle</title><g clip-path="url(#a)"><path d="M1011.4,563.12a2.11,2.11,0,0,0-1.87-.88,2.4,2.4,0,0,0-1.56.51A3.15,3.15,0,0,0,1007,564a3.58,3.58,0,0,0-.16,1.2v8.18H1012v-7.84A4.28,4.28,0,0,0,1011.4,563.12Z" transform="translate(-989 -540.4)"/><path d="M1020.19,542.22a6,6,0,0,0-4.37-1.82H995.19a6.2,6.2,0,0,0-6.19,6.19v20.63a6.21,6.21,0,0,0,5.42,6.14V558.74h4.88V573.4H1002q0-5.9,0-9.57t0-4.38v-.71h4.87v2.08a5.52,5.52,0,0,1,1.41-1.55,3.84,3.84,0,0,1,1.29-.64,5.87,5.87,0,0,1,1.69-.23,5.26,5.26,0,0,1,4.07,1.68,7,7,0,0,1,1.54,4.92v8.32a6.22,6.22,0,0,0,5.14-6.11V546.59A6,6,0,0,0,1020.19,542.22ZM998.86,556a2.79,2.79,0,0,1-2,.73h0a2.67,2.67,0,0,1-2-.73,2.43,2.43,0,0,1-.74-1.81,2.38,2.38,0,0,1,.76-1.81,2.79,2.79,0,0,1,2-.72,2.71,2.71,0,0,1,2,.72,2.47,2.47,0,0,1,.75,1.81A2.34,2.34,0,0,1,998.86,556Z" transform="translate(-989 -540.4)"/></g></svg>