<svg xmlns="http://www.w3.org/2000/svg" xmlns:xlink="http://www.w3.org/1999/xlink" viewBox="0 0 33 33"><defs><clipPath id="a" transform="translate(-989 -540.4)"><path d="M1022,556.9q0,4.92-.11,6.81a9.14,9.14,0,0,1-9.58,9.58q-1.89.11-6.81.11t-6.81-.11a9.14,9.14,0,0,1-9.58-9.58q-.11-1.89-.11-6.81t.11-6.81a9.14,9.14,0,0,1,9.58-9.58q1.89-.11,6.81-.11t6.81.11a9.14,9.14,0,0,1,9.58,9.58Q1022,552,1022,556.9Z" fill="none"/></clipPath></defs><title>mail-squircle</title><g clip-path="url(#a)"><path d="M1015.81,540.4a6.2,6.2,0,0,1,6.19,6.19v20.63a6.2,6.2,0,0,1-6.19,6.19H995.19a6.2,6.2,0,0,1-6.19-6.19V546.59a6.2,6.2,0,0,1,6.19-6.19Zm.69,22.69v-9.37a6.05,6.05,0,0,1-1.38,1.18l-2.85,1.83q-2.12,1.35-3.26,2.13a4.93,4.93,0,0,1-7,0q-1-.69-3.05-2t-3.05-2a6.76,6.76,0,0,1-.71-.58q-.45-.41-.67-.58v9.37a2.05,2.05,0,0,0,2.06,2.06h17.88a2.05,2.05,0,0,0,2.06-2.06Zm0-12.31a2.11,2.11,0,0,0-.59-1.5,2,2,0,0,0-1.47-.62H996.56a2.05,2.05,0,0,0-2.06,2.06,2.72,2.72,0,0,0,.66,1.64,6.29,6.29,0,0,0,1.45,1.39q1,.69,3,1.91t2.78,1.78l.37.25.45.3.45.28q.3.18.5.28l.46.2a3.18,3.18,0,0,0,.48.16,1.83,1.83,0,0,0,.88,0,3.18,3.18,0,0,0,.48-.16l.46-.2q.2-.1.5-.28l.45-.28.45-.3.37-.25,5.74-3.74a6.23,6.23,0,0,0,1.43-1.34A2.61,2.61,0,0,0,1016.5,550.78Z" transform="translate(-989 -540.4)"/></g></svg>